<?xml version="1.0" standalone="no"?>
<svg viewBox="0 0 200 200" xmlns="http://www.w3.org/2000/svg">
  <path fill="#FFFFFF" d="M27.6,-54.7C35.3,-43.3,40.8,-35,47.6,-26.4C54.5,-17.8,62.6,-8.9,63.3,0.4C64.1,9.8,57.4,19.5,53.7,33.6C50.1,47.6,49.3,65.9,40.9,72.4C32.4,78.9,16.2,73.6,1.3,71.4C-13.7,69.2,-27.4,70.2,-37,64.4C-46.6,58.5,-52,45.9,-53.9,34C-55.8,22.1,-54.1,11.1,-53.7,0.2C-53.2,-10.6,-54.1,-21.2,-52,-32.6C-49.8,-44,-44.7,-56.2,-35.5,-66.8C-26.4,-77.4,-13.2,-86.3,-1.6,-83.5C9.9,-80.7,19.8,-66.1,27.6,-54.7Z" transform="translate(100 100)" />
</svg>
